# xmcd CD database file
#
# Track frame offsets:
#	150
#	16255
#	39057
#	55195
#	72825
#	89067
#	108825
#	134317
#	162187
#	175590
#	188885
#	207122
#
# Disc length: 3064 seconds
#
# Revision: 0
# Processed by: cddbd v1.5PL3 Copyright (c) Steve Scherf et al.
# Submitted via: CDex 1.50beta10
#
DISCID=940bf60c
DTITLE=Stanley Behrens and Willie Dixon - The Stanley Behrens - Willie Dixon Project
DYEAR=1992
DGENRE=Blues
TTITLE0=L. A. Is The City
TTITLE1=Every Girl I See
TTITLE2=Fine Stick
TTITLE3=I Need More
TTITLE4=Wigglin' Worm
TTITLE5=Baby Buns
TTITLE6=Don't Let That Music Die
TTITLE7=I Think I Got The Blues
TTITLE8=Hot To Trot
TTITLE9=After Five Long Years
TTITLE10=Heart Attack
TTITLE11=When I'm Lovin' You
EXTD=YEAR: 1992
EXTT0=
EXTT1=
EXTT2=
EXTT3=
EXTT4=
EXTT5=
EXTT6=
EXTT7=
EXTT8=
EXTT9=
EXTT10=
EXTT11=
PLAYORDER=
